Coordinates
version=1
nRows=10
nColumns=40
inDegrees=yes

Units are S.I. units (second, meters, Newtons, ...)
Angles are in degrees.

endheader
time	pelvis_tilt	pelvis_list	pelvis_rotation	pelvis_tx	pelvis_ty	pelvis_tz	hip_flexion_r	hip_adduction_r	hip_rotation_r	knee_angle_r	knee_angle_r_beta	ankle_angle_r	subtalar_angle_r	mtp_angle_r	hip_flexion_l	hip_adduction_l	hip_rotation_l	knee_angle_l	knee_angle_l_beta	ankle_angle_l	subtalar_angle_l	mtp_angle_l	lumbar_extension	lumbar_bending	lumbar_rotation	arm_flex_r	arm_add_r	arm_rot_r	elbow_flex_r	pro_sup_r	wrist_flex_r	wrist_dev_r	arm_flex_l	arm_add_l	arm_rot_l	elbow_flex_l	pro_sup_l	wrist_flex_l	wrist_dev_l
      2.62000000	      3.07416832	     -2.19874505	      1.99126073	      0.62622454	      0.88739504	      1.02038758	     -7.15266031	      3.43172153	    -12.08059672	    -21.63318462	     -0.37757030	     13.78602735	      3.82831008	     -5.89346163	     19.19350686	      3.47142222	     11.13675045	    -13.84505863	     -0.24164186	     -2.26740850	     -3.76585950	     -8.36689864	    -11.65864041	      2.76271428	      5.21614071	     16.39428805	    -11.15527883	      9.07395480	     19.54741216	     89.95437384	      0.00000000	      0.00000000	     -1.06986542	      7.23266579	    -16.65538769	     18.11172100	     89.95437384	      0.00000000	      0.00000000
      2.63000000	      3.13816557	     -2.22012612	      1.61739235	      0.63305479	      0.88719674	      1.01938253	     -7.73384515	      3.37046801	    -11.42402293	    -21.53777877	     -0.37590515	     14.38727258	      4.10815233	     -6.01139313	     18.98372412	      3.51399464	     11.34749138	    -14.55891908	     -0.25410107	     -3.42443789	     -2.80871073	     -7.98306791	    -11.69142811	      2.71959798	      5.48930558	     16.32218233	    -10.92602390	      8.86569791	     19.40622631	     89.95437384	      0.00000000	      0.00000000	     -0.92934199	      6.93681011	    -17.02482398	     17.26874745	     89.95437384	      0.00000000	      0.00000000
      2.64000000	      3.20477161	     -1.86269576	      1.15151952	      0.63998310	      0.88732472	      1.01831347	     -8.13844709	      2.78112397	    -10.95580669	    -21.81663212	     -0.38077206	     14.13470644	      4.07876427	     -6.08275496	     18.29750711	      3.03011265	     11.23867931	    -14.09840493	     -0.24606359	     -4.87683784	     -1.85302621	     -7.56264689	    -11.77832590	      2.22945684	      5.78392453	     16.00415809	    -10.64715456	      8.20396473	     19.74614197	     89.95437384	      0.00000000	      0.00000000	     -1.10457484	      6.91770057	    -17.26816310	     17.32902642	     89.95437384	      0.00000000	      0.00000000
      2.65000000	      2.99165876	     -1.73345127	      0.89696017	      0.64669721	      0.88710278	      1.01703866	     -8.18455401	      2.47235734	    -10.69980296	    -22.12928825	     -0.38622894	     13.98691874	      3.99305192	     -6.04789803	     18.20120617	      2.83997808	     10.79585919	    -14.09440427	     -0.24599376	     -5.88442731	     -1.82183615	     -7.34523921	    -11.54653926	      2.02775013	      5.79645756	     15.76962579	    -10.39906160	      8.18321925	     19.86892534	     89.95437384	      0.00000000	      0.00000000	     -1.20350707	      6.79472360	    -17.35786090	     17.07719147	     89.95437384	      0.00000000	      0.00000000
      2.66000000	      2.75691040	     -1.69949620	      0.73000988	      0.65346988	      0.88683760	      1.01584254	     -8.14499995	      2.29205799	    -10.54245922	    -22.57734626	     -0.39404903	     13.62714073	      3.84151996	     -5.92630729	     18.29754364	      2.78189172	     10.58021905	    -14.47843276	     -0.25269632	     -6.00895730	     -1.73515785	     -7.17123587	    -11.31269766	      1.90825867	      5.70167977	     15.42191041	    -10.17554935	      8.17538083	     20.26899733	     89.95437384	      0.00000000	      0.00000000	     -1.50919840	      6.79788132	    -17.29621263	     17.32037612	     89.95437384	      0.00000000	      0.00000000
      2.67000000	      2.87514543	     -1.10673873	      0.24928255	      0.66079964	      0.88757461	      1.01454436	     -8.49560690	      1.38719903	    -10.26711707	    -23.04754607	     -0.40225556	     13.28146301	      3.55105215	     -5.95692715	     17.31318417	      2.11387069	     11.12625640	    -13.67424345	     -0.23866057	     -7.05986860	     -1.01355508	     -7.00340786	    -11.41699387	      1.17772145	      5.92903614	     15.04580897	     -9.91971254	      7.99477415	     20.47659386	     89.95437384	      0.00000000	      0.00000000	     -1.53649545	      6.77390613	    -17.69572357	     17.13237265	     89.95437384	      0.00000000	      0.00000000
      2.68000000	      2.64236071	     -1.01384871	      0.20279307	      0.66764455	      0.88775170	      1.01299933	     -8.46974499	      1.14780023	    -10.13260092	    -23.45135359	     -0.40930333	     12.88879582	      3.41293969	     -5.84727117	     17.31506841	      1.98278713	     11.34657440	    -14.01728957	     -0.24464786	     -6.80443124	     -0.78010172	     -6.88325420	    -11.16354137	      1.03999390	      5.69184238	     14.74427632	     -9.67156783	      8.03262473	     20.62184528	     89.95437384	      0.00000000	      0.00000000	     -1.67752356	      6.75806264	    -17.76001910	     17.13113570	     89.95437384	      0.00000000	      0.00000000
      2.69000000	      2.39924568	     -0.97466741	      0.14000766	      0.67451841	      0.88805832	      1.01149457	     -8.37298477	      0.96941899	     -9.91701325	    -23.94922752	     -0.41799287	     12.47617105	      3.27884207	     -5.71537496	     17.35863106	      1.83878693	     11.17240851	    -14.49790433	     -0.25303617	     -6.73734721	     -0.74321807	     -6.73503617	    -10.90233176	      0.94400454	      5.55947415	     14.31101877	     -9.49111426	      8.03940538	     20.93178477	     89.95437384	      0.00000000	      0.00000000	     -1.87622192	      6.76964540	    -17.69891213	     17.41625281	     89.95437384	      0.00000000	      0.00000000
      2.70000000	      2.21481026	     -0.42079074	     -0.10963732	      0.68145452	      0.88871799	      1.00967563	     -8.08944113	      0.08178773	     -9.77663673	    -24.88118799	     -0.43425865	     11.53683509	      2.78599195	     -5.49081645	     17.09406619	      1.12076692	     11.44914922	    -14.68039505	     -0.25622123	     -5.92104221	     -0.96937103	     -6.73892099	    -10.64341933	      0.31489324	      5.45501180	     14.13451294	     -9.20306261	      8.19984608	     20.59795236	     89.95437384	      0.00000000	      0.00000000	     -1.72368764	      6.69991596	    -18.11010900	     16.91594902	     89.95437384	      0.00000000	      0.00000000
      2.71000000	      1.99994121	     -0.12467582	     -0.29709533	      0.68844745	      0.88950991	      1.00796147	     -7.75804824	     -0.46293541	     -9.53549159	    -25.79174336	     -0.45015084	     10.74281718	      2.43339897	     -5.30245265	     16.76773443	      0.69727347	     11.67582198	    -14.64175106	     -0.25554676	     -5.48243183	     -0.99206687	     -6.63588234	    -10.36942121	     -0.03420519	      5.32694766	     13.81435711	     -8.97076033	      8.28746268	     20.54698770	     89.95437384	      0.00000000	      0.00000000	     -1.66017418	      6.68455888	    -18.56118239	     16.71177663	     89.95437384	      0.00000000	      0.00000000
